<svg version="1.1" xmlns="http://www.w3.org/2000/svg" width="122" height="32" viewBox="0 0 122 32">
<title>ring-bus-logo</title>
<path fill="#fed800" opacity="0.986" d="M3.433 1.858c0 8.105 0 16.21 0 24.315 1.806 0 3.612 0 5.417 0 0-3.863 0-7.727 0-11.591 0.19-0.010 0.379 0 0.567 0.031 0.538 0.084 0.864 0.389 0.976 0.913-0.029 2.372-0.029 4.745 0 7.118 0.038 0.719 0.122 1.433 0.252 2.142 0.089 0.466 0.246 0.907 0.472 1.323 1.826 0.073 3.653 0.084 5.48 0.032-0.268-0.274-0.447-0.599-0.535-0.976-0.349-1.692-0.506-3.404-0.472-5.134 0.049-1.291 0.060-2.583 0.031-3.874-0.067-0.538-0.235-1.041-0.504-1.512-0.638-0.913-1.509-1.491-2.614-1.732 0.406-0.151 0.805-0.319 1.197-0.504 1.098-0.588 1.738-1.501 1.921-2.74 0.042-1.386 0.042-2.772 0-4.157-0.073-0.671-0.304-1.28-0.693-1.827-1.051-1.045-2.321-1.643-3.811-1.795-2.562-0.032-5.123-0.042-7.685-0.032zM8.85 5.008c0.67-0.075 1.163 0.177 1.48 0.756 0.072 0.815 0.103 1.634 0.095 2.457 0.008 0.843-0.023 1.683-0.095 2.52-0.317 0.579-0.811 0.831-1.48 0.756 0-2.163 0-4.325 0-6.488z"></path>
<path fill="#fefffe" opacity="0.978" d="M17.165 1.858c1.617 0 3.234 0 4.85 0 0 1.197 0 2.394 0 3.591-1.617 0-3.234 0-4.85 0 0-1.197 0-2.394 0-3.591z"></path>
<path fill="#fed800" opacity="0.988" d="M47.654 1.858c0 8.084 0 16.168 0 24.252 2.583 0.011 5.165 0 7.748-0.032 0.318-0.047 0.633-0.11 0.945-0.189 1.982-0.554 3.105-1.845 3.37-3.874 0.042-1.974 0.042-3.948 0-5.921-0.059-0.45-0.206-0.87-0.441-1.26-0.658-0.876-1.53-1.443-2.614-1.701 0.458-0.187 0.899-0.407 1.323-0.661 0.817-0.531 1.332-1.277 1.543-2.236 0.042-1.617 0.042-3.234 0-4.85-0.103-0.898-0.491-1.643-1.165-2.236-0.849-0.619-1.794-1.018-2.835-1.197-2.623-0.092-5.247-0.123-7.874-0.095zM53.071 5.008c0.643-0.071 1.094 0.181 1.354 0.756 0.070 0.848 0.101 1.698 0.094 2.551 0.007 0.853-0.025 1.703-0.094 2.551-0.263 0.575-0.714 0.827-1.354 0.756 0-2.205 0-4.409 0-6.614zM53.071 14.394c0.643-0.071 1.094 0.181 1.354 0.756 0.071 1.174 0.102 2.349 0.094 3.528 0.008 1.178-0.023 2.354-0.094 3.528-0.26 0.575-0.712 0.827-1.354 0.756 0-2.856 0-5.711 0-8.567z"></path>
<path fill="#fed800" opacity="0.004" d="M104.283 2.362c0.084 0.042 0.084 0.042 0 0z"></path>
<path fill="#fed800" opacity="0.984" d="M111.465 2.362c3.021 2.822 6.035 5.656 9.039 8.504 0.027 0.069-0.004 0.111-0.094 0.126-0.419 0.123-0.828 0.27-1.228 0.441-0.021-0.021-0.042-0.042-0.063-0.063-0.902 0.309-1.815 0.582-2.74 0.819 0.569 4.915-1.005 8.978-4.724 12.189-3.677 2.772-7.688 3.549-12.031 2.331-4.302-1.405-7.211-4.271-8.724-8.598-1.281-4.619-0.441-8.798 2.52-12.535 0.148-0.159 0.305-0.306 0.472-0.441 0.986 0.903 1.953 1.827 2.898 2.772-2.504 2.971-3.060 6.268-1.669 9.89 1.243 2.584 3.237 4.285 5.984 5.102 3.802 0.806 6.973-0.285 9.512-3.276 1.351-1.857 1.929-3.935 1.732-6.236-1.244 0.36-2.483 0.738-3.717 1.134-0.021-0.042-0.042-0.084-0.063-0.126 0.956-4.014 1.922-8.024 2.898-12.031z"></path>
<path fill="#fefffe" opacity="0.991" d="M29.701 6.331c1.376-0.202 2.636 0.082 3.78 0.85 0.342 0.301 0.584 0.668 0.724 1.102 0.094 5.961 0.125 11.924 0.094 17.89-1.617 0-3.234 0-4.85 0 0.011-5.333 0-10.667-0.032-16-0.043-0.488-0.305-0.719-0.787-0.693-0.488-0.027-0.75 0.204-0.787 0.693-0.032 5.333-0.042 10.667-0.032 16-1.617 0-3.234 0-4.85 0 0-6.572 0-13.144 0-19.717 1.617 0 3.234 0 4.85 0-0.010 0.19 0 0.379 0.032 0.567 0.576-0.363 1.195-0.594 1.858-0.693z"></path>
<path fill="#fefffe" opacity="0.989" d="M38.142 6.331c-0.286 0.071-0.58 0.145-0.882 0.22-1.099 0.385-1.739 1.151-1.921 2.299-0.042 5.102-0.042 10.205 0 15.307 0.218 0.826 0.712 1.424 1.48 1.795 1.020 0.417 2.070 0.543 3.15 0.378 0.641-0.074 1.24-0.273 1.795-0.598 0.012 0.784-0.355 1.298-1.102 1.543-1.489 0.088-2.98 0.12-4.472 0.095 0 0.966 0 1.932 0 2.898 2.205 0.011 4.41 0 6.614-0.032 0.317-0.028 0.632-0.070 0.945-0.126 0.783-0.093 1.466-0.397 2.047-0.913 0.488-0.813 0.761-1.695 0.819-2.646 0.032-6.698 0.042-13.396 0.032-20.095-1.428-0.011-2.856 0-4.283 0.032-0.178 0.22-0.357 0.441-0.535 0.661-1.131-0.703-2.359-0.976-3.685-0.819zM40.598 9.417c0.647-0.176 1.035 0.055 1.165 0.693 0.042 4.22 0.042 8.441 0 12.661-0.067 0.455-0.329 0.665-0.787 0.63-0.43 0.043-0.692-0.146-0.787-0.567-0.042-4.283-0.042-8.567 0-12.85 0.055-0.254 0.191-0.443 0.409-0.567z"></path>
<path fill="#fefffe" opacity="0.983" d="M77.512 6.331c0.882-0.011 1.764 0 2.646 0.032 1.301 0.069 2.425 0.541 3.37 1.417 0.423 0.511 0.675 1.099 0.756 1.764 0.031 1.554 0.042 3.107 0.031 4.661-1.575 0-3.15 0-4.724 0 0.050-1.134 0.061-2.267 0.031-3.402-0.034-0.481-0.192-0.911-0.472-1.291-0.684-0.2-1.072 0.062-1.165 0.787-0.077 0.872-0.014 1.733 0.189 2.583 0.102 0.333 0.28 0.616 0.535 0.85 1.303 0.925 2.689 1.723 4.157 2.394 0.862 0.663 1.376 1.535 1.543 2.614 0.059 1.493 0.037 2.984-0.063 4.472-0.268 1.318-1.034 2.21-2.299 2.677-1.082 0.369-2.195 0.526-3.339 0.472-1.194 0.063-2.349-0.115-3.465-0.535-1.066-0.457-1.748-1.244-2.047-2.362-0.091-1.761-0.123-3.525-0.094-5.291 1.617 0 3.233 0 4.85 0-0.011 1.491 0 2.982 0.031 4.472 0.108 0.543 0.433 0.742 0.976 0.598 0.261-0.195 0.418-0.457 0.472-0.787 0.171-1.112 0.087-2.204-0.252-3.276-0.127-0.378-0.348-0.682-0.661-0.913-1.49-0.745-2.918-1.584-4.283-2.52-0.725-0.641-1.072-1.449-1.039-2.425-0.042-1.029-0.042-2.058 0-3.087 0.117-1.902 1.093-3.109 2.929-3.622 0.468-0.108 0.93-0.203 1.386-0.283z"></path>
<path fill="#fefffe" opacity="0.991" d="M17.165 6.457c1.617 0 3.234 0 4.85 0 0 6.572 0 13.144 0 19.717-1.617 0-3.234 0-4.85 0 0-6.572 0-13.144 0-19.717z"></path>
<path fill="#fefffe" opacity="0.989" d="M60.819 6.457c1.617 0 3.233 0 4.85 0-0.011 5.417 0 10.835 0.031 16.252 0.095 0.421 0.358 0.61 0.787 0.567 0.458 0.035 0.721-0.175 0.787-0.63 0.031-5.396 0.042-10.793 0.031-16.189 1.617 0 3.233 0 4.85 0 0 6.572 0 13.144 0 19.717-1.617 0-3.233 0-4.85 0 0.011-0.211 0-0.421-0.031-0.63-0.561 0.446-1.201 0.709-1.921 0.787-1.434 0.26-2.715-0.055-3.843-0.945-0.256-0.291-0.455-0.616-0.598-0.976-0.094-5.981-0.125-11.966-0.094-17.953z"></path>
<path fill="#fed800" opacity="0.004" d="M95.024 10.992c0.084 0.042 0.084 0.042 0 0z"></path>
<path fill="#fed800" opacity="0.004" d="M116.504 12.315c0.065 0.025 0.075 0.067 0.031 0.126-0.029-0.037-0.040-0.079-0.031-0.126z"></path>
<path fill="#fed800" opacity="0.004" d="M116.567 12.693c0.084 0.042 0.084 0.042 0 0z"></path>
<path fill="#fed800" opacity="0.004" d="M108.693 13.071c0.084 0.042 0.084 0.042 0 0z"></path>
<path fill="#fed800" opacity="0.012" d="M94.457 13.827c0.084 0.042 0.084 0.042 0 0z"></path>
<path fill="#fed800" opacity="0.012" d="M90.11 14.268c0.084 0.042 0.084 0.042 0 0z"></path>
<path fill="#fed800" opacity="0.004" d="M116.567 15.024c0.065 0.025 0.075 0.067 0.031 0.126-0.029-0.037-0.040-0.079-0.031-0.126z"></path>
<path fill="#fed800" opacity="0.004" d="M116.441 16.22c0.084 0.042 0.084 0.042 0 0z"></path>
<path fill="#fed800" opacity="0.004" d="M90.362 16.598c0.084 0.042 0.084 0.042 0 0z"></path>
<path fill="#fed800" opacity="0.004" d="M95.465 18.236c0.084 0.042 0.084 0.042 0 0z"></path>
<path fill="#fed800" opacity="0.004" d="M115.937 18.677c0.084 0.042 0.084 0.042 0 0z"></path>
<path fill="#fed800" opacity="0.004" d="M102.646 20.315c0.084 0.042 0.084 0.042 0 0z"></path>
<path fill="#fed800" opacity="0.004" d="M91.811 20.504c0.084 0.042 0.084 0.042 0 0z"></path>
<path fill="#fed800" opacity="0.008" d="M91.874 20.63c0.084 0.042 0.084 0.042 0 0z"></path>
<path fill="#fed800" opacity="0.004" d="M103.906 21.764c0.084 0.042 0.084 0.042 0 0z"></path>
<path fill="#fed800" opacity="0.008" d="M100.756 22.583c0.084 0.042 0.084 0.042 0 0z"></path>
<path fill="#fed800" opacity="0.027" d="M101.89 22.898c0.084 0.042 0.084 0.042 0 0z"></path>
<path fill="#fed800" opacity="0.004" d="M103.969 22.961c0.084 0.042 0.084 0.042 0 0z"></path>
<path fill="#fed800" opacity="0.008" d="M112.094 24.095c0.084 0.042 0.084 0.042 0 0z"></path>
<path fill="#fed800" opacity="0.004" d="M108.756 26.488c0.084 0.042 0.084 0.042 0 0z"></path>
<path fill="#fed800" opacity="0.016" d="M100 26.929c0.084 0.042 0.084 0.042 0 0z"></path>
<path fill="#fed800" opacity="0.004" d="M107.055 26.929c0.084 0.042 0.084 0.042 0 0z"></path>
<path fill="#fed800" opacity="0.004" d="M100.819 27.118c0.084 0.042 0.084 0.042 0 0z"></path>
<path fill="#fed800" opacity="0.004" d="M100.441 28.378c0.084 0.042 0.084 0.042 0 0z"></path>
<path fill="#fed800" opacity="0.004" d="M88.976 29.512c0.084 0.042 0.084 0.042 0 0z"></path>
</svg>
