<!-- Generated by IcoMoon.io -->
<svg version="1.1" xmlns="http://www.w3.org/2000/svg" width="32" height="32" viewBox="0 0 32 32">
<title>parcel</title>
<path d="M29.482 8.624l-10-5.5c-0.139-0.078-0.305-0.124-0.482-0.124s-0.343 0.046-0.487 0.126l0.005-0.003-10 5.5c-0.311 0.174-0.518 0.501-0.518 0.876s0.207 0.702 0.513 0.873l0.005 0.003 9.482 5.215v10.717l-3.036-1.669-0.964 1.752 4.518 2.485c0.139 0.078 0.305 0.124 0.482 0.124s0.343-0.046 0.487-0.127l-0.005 0.003 10-5.5c0.311-0.174 0.518-0.501 0.518-0.876v0-13c-0-0.375-0.207-0.702-0.513-0.873l-0.005-0.003zM19 5.142l7.925 4.358-7.925 4.358-7.925-4.358zM28 21.909l-8 4.4v-10.717l8-4.4z"></path>
<path d="M10 16h-8v-2h8v2z"></path>
<path d="M12 24h-8v-2h8v2z"></path>
<path d="M14 20h-8v-2h8v2z"></path>
</svg>
