<!-- Generated by IcoMoon.io -->
<svg version="1.1" xmlns="http://www.w3.org/2000/svg" width="32" height="32" viewBox="0 0 32 32">
<title>seatbelt</title>
<path d="M19.013 31.186c0 0.449-0.364 0.814-0.814 0.814h-4.399c-0.449 0-0.814-0.364-0.814-0.814s0.364-0.814 0.814-0.814h4.399c0.449 0 0.814 0.364 0.814 0.814zM26.191 23.414v2.344c0 1.741-1.417 3.158-3.158 3.158h-14.066c-1.741 0-3.158-1.417-3.158-3.158v-2.344c0-0.449 0.364-0.814 0.814-0.814h0.216c-0.002-0.023-0.003-0.047-0.003-0.071v-2.181c-0.001-0.048 0.002-0.096 0.010-0.144 0.018-0.12 0.063-0.232 0.128-0.328 0.064-0.095 0.148-0.178 0.25-0.24 0.041-0.025 0.085-0.047 0.131-0.065 0.322-0.134 0.643-0.273 0.959-0.415v-9.942c0-1.616 1.028-3.036 2.495-3.582-0.002-0.044-0.003-0.089-0.003-0.134v-2.010c-0-1.923 1.565-3.488 3.488-3.488h3.411c1.923 0 3.488 1.565 3.488 3.488v2.010c0 0.045-0.001 0.089-0.003 0.134 0.578 0.215 1.097 0.568 1.51 1.026 0.014-0.027 0.029-0.054 0.043-0.081 0.21-0.397 0.702-0.55 1.099-0.34s0.55 0.702 0.34 1.099c-1.523 2.887-3.735 5.561-6.574 7.949-2.266 1.906-4.838 3.553-7.668 4.911v2.404h12.117v-9.794c0-0.449 0.364-0.814 0.814-0.814s0.814 0.364 0.814 0.814v9.793h1.691c0.449 0 0.814 0.364 0.814 0.814zM12.434 5.498c0 0.167 0.022 0.328 0.063 0.482 0.007 0.020 0.012 0.040 0.017 0.061 0.233 0.762 0.942 1.318 1.78 1.318h3.411c0.837 0 1.547-0.556 1.78-1.318 0.005-0.021 0.011-0.041 0.018-0.061 0.041-0.154 0.063-0.315 0.063-0.481v-2.010c0-1.026-0.835-1.861-1.861-1.861h-3.411c-1.026 0-1.86 0.835-1.86 1.861v2.010zM9.941 18.379c5.080-2.579 9.253-6.162 11.859-10.193-0.236-0.44-0.61-0.783-1.055-0.979-0.599 1.061-1.737 1.779-3.040 1.779h-3.411c-1.303 0-2.441-0.718-3.040-1.78-0.778 0.344-1.313 1.125-1.313 2.008v9.165zM24.564 24.227h-1.679c-0.004 0-0.008 0-0.012 0h-13.745c-0.004 0-0.008 0-0.012-0h-1.679v1.531c0 0.844 0.687 1.531 1.531 1.531h14.066c0.844 0 1.531-0.687 1.531-1.531v-1.531z"></path>
</svg>
